<svg xmlns="http://www.w3.org/2000/svg" viewBox="0 0 512 512">
  <rect width="512" height="512" rx="96" fill="#16706f"/>
  <path d="M96 344c52-62 84-90 117-84 29 5 45 36 75 33 35-4 51-51 91-57 28-4 51 13 77 45v111H96z" fill="#f7f2e8"/>
  <circle cx="178" cy="166" r="58" fill="#f6c85f"/>
  <circle cx="330" cy="188" r="34" fill="#e95f76"/>
  <circle cx="255" cy="315" r="42" fill="#5ca8d6"/>
  <path d="M139 376h234" stroke="#2f3136" stroke-width="22" stroke-linecap="round"/>
  <path d="M182 137h-22v-24h51v106h-29zM321 217c0-48 55-50 55-77 0-12-9-20-24-20-14 0-26 7-37 20l-18-19c14-18 34-28 59-28 31 0 52 16 52 44 0 41-54 46-55 75v2h-32z" fill="#2f3136"/>
</svg>

